<svg width="6" height="7" viewBox="0 0 6 7" fill="none" xmlns="http://www.w3.org/2000/svg">
<g clip-path="url(#clip0_281_416)">
<g clip-path="url(#clip1_281_416)">
<path d="M1.69216 6.25C1.55982 6.25 1.44653 6.20288 1.35228 6.10863C1.25804 6.01439 1.21091 5.90109 1.21091 5.76875C1.21091 5.63641 1.25804 5.52311 1.35228 5.42887C1.44653 5.33462 1.55982 5.2875 1.69216 5.2875C1.82451 5.2875 1.9378 5.33462 2.03205 5.42887C2.12629 5.52311 2.17341 5.63641 2.17341 5.76875C2.17341 5.90109 2.12629 6.01439 2.03205 6.10863C1.9378 6.20288 1.82451 6.25 1.69216 6.25ZM4.09841 6.25C3.96607 6.25 3.85278 6.20288 3.75853 6.10863C3.66429 6.01439 3.61716 5.90109 3.61716 5.76875C3.61716 5.63641 3.66429 5.52311 3.75853 5.42887C3.85278 5.33462 3.96607 5.2875 4.09841 5.2875C4.23076 5.2875 4.34405 5.33462 4.4383 5.42887C4.53254 5.52311 4.57966 5.63641 4.57966 5.76875C4.57966 5.90109 4.53254 6.01439 4.4383 6.10863C4.34405 6.20288 4.23076 6.25 4.09841 6.25ZM1.48763 2.4L2.06513 3.60312H3.74951L4.41123 2.4H1.48763ZM1.25904 1.91875H4.80826C4.9005 1.91875 4.97068 1.95986 5.0188 2.04207C5.06693 2.12428 5.06893 2.2075 5.02482 2.29172L4.1706 3.83172C4.12649 3.91193 4.06733 3.97409 3.99314 4.0182C3.91895 4.06232 3.83774 4.08437 3.74951 4.08437H1.95685L1.69216 4.56562H4.33904C4.40722 4.56562 4.46436 4.58868 4.51048 4.6348C4.5566 4.68092 4.57966 4.73807 4.57966 4.80625C4.57966 4.87443 4.5566 4.93158 4.51048 4.9777C4.46436 5.02382 4.40722 5.04687 4.33904 5.04687H1.69216C1.51169 5.04687 1.37534 4.96767 1.2831 4.80926C1.19086 4.65085 1.18685 4.49344 1.27107 4.33703L1.59591 3.7475L0.729663 1.91875H0.489038C0.420861 1.91875 0.363713 1.89569 0.317593 1.84957C0.271473 1.80345 0.248413 1.7463 0.248413 1.67812C0.248413 1.60995 0.271473 1.5528 0.317593 1.50668C0.363713 1.46056 0.420861 1.4375 0.489038 1.4375H0.880054C0.924168 1.4375 0.966278 1.44953 1.00638 1.47359C1.04649 1.49766 1.07656 1.53174 1.09662 1.57586L1.25904 1.91875Z" fill="#333333"/>
</g>
</g>
<defs>
<clipPath id="clip0_281_416">
<rect width="5.775" height="5.775" fill="white" transform="translate(0.0078125 0.956299)"/>
</clipPath>
<clipPath id="clip1_281_416">
<rect width="5.775" height="5.775" fill="white" transform="translate(0.0078125 0.956299)"/>
</clipPath>
</defs>
</svg>
