<svg width="20" height="20" viewBox="0 0 20 20" fill="none" xmlns="http://www.w3.org/2000/svg">
<rect width="20" height="20" fill="#F5F5F5"/>
<g id="&#236;&#139;&#160;&#236;&#131;&#129;&#237;&#146;&#136; &#237;&#142;&#152;&#236;&#157;&#180;&#236;&#167;&#128;">
<path d="M-3992 -896C-3992 -897.105 -3991.1 -898 -3990 -898H1437C1438.1 -898 1439 -897.105 1439 -896V835C1439 836.104 1438.1 837 1437 837H-3990C-3991.1 837 -3992 836.105 -3992 835V-896Z" fill="#C9CDD6"/>
<path d="M-3990 -898V-897H1437V-898V-899H-3990V-898ZM1439 -896H1438V835H1439H1440V-896H1439ZM1437 837V836H-3990V837V838H1437V837ZM-3992 835H-3991V-896H-3992H-3993V835H-3992ZM-3990 837V836C-3990.55 836 -3991 835.552 -3991 835H-3992H-3993C-3993 836.657 -3991.66 838 -3990 838V837ZM1439 835H1438C1438 835.552 1437.55 836 1437 836V837V838C1438.66 838 1440 836.657 1440 835H1439ZM1437 -898V-897C1437.55 -897 1438 -896.552 1438 -896H1439H1440C1440 -897.657 1438.66 -899 1437 -899V-898ZM-3990 -898V-899C-3991.66 -899 -3993 -897.657 -3993 -896H-3992H-3991C-3991 -896.552 -3990.55 -897 -3990 -897V-898Z" fill="black" fill-opacity="0.1"/>
<g id="&#237;&#149;&#132;&#237;&#132;&#176; &#236;&#130;&#172;&#236;&#157;&#180;&#235;&#147;&#156; &#235;&#176;&#148; &#236;&#164;&#145; &#236;&#185;&#180;&#237;&#133;&#140;&#234;&#179;&#160;&#235;&#166;&#172;&#235;&#165;&#188; &#236;&#132;&#160;&#237;&#131;&#157;&#237;&#150;&#136;&#236;&#157;&#132; &#235;&#149;&#140;">
<rect width="1920" height="1126" transform="translate(-779 -430)" fill="white"/>
<g id="Frame 1" clip-path="url(#clip0_0_1)">
<rect width="1050" height="1026" transform="translate(-344 -430)" fill="white"/>
<g id="Body">
<g id="Frame 10">
<g id="&#236;&#185;&#180;&#237;&#133;&#140;&#234;&#179;&#160;&#235;&#166;&#172; &#237;&#149;&#132;&#237;&#132;&#176; &#236;&#132;&#160;&#237;&#131;&#157;&#235;&#158;&#128;">
<rect x="-76.5" y="-19.5" width="782" height="57" stroke="#E2E2E2"/>
<g id="&#236;&#185;&#180;&#237;&#133;&#140;&#234;&#179;&#160;&#235;&#166;&#172; &#237;&#149;&#132;&#237;&#132;&#176;">
<g id="icon" clip-path="url(#clip1_0_1)">
<g id="close_FILL0_wght400_GRAD0_opsz24 1">
<path id="Vector" d="M9.99992 11.1668L5.91659 15.2502C5.76381 15.4029 5.56936 15.4793 5.33325 15.4793C5.09714 15.4793 4.9027 15.4029 4.74992 15.2502C4.59714 15.0974 4.52075 14.9029 4.52075 14.6668C4.52075 14.4307 4.59714 14.2363 4.74992 14.0835L8.83325 10.0002L4.74992 5.91683C4.59714 5.76405 4.52075 5.56961 4.52075 5.3335C4.52075 5.09738 4.59714 4.90294 4.74992 4.75016C4.9027 4.59738 5.09714 4.521 5.33325 4.521C5.56936 4.521 5.76381 4.59738 5.91659 4.75016L9.99992 8.8335L14.0833 4.75016C14.236 4.59738 14.4305 4.521 14.6666 4.521C14.9027 4.521 15.0971 4.59738 15.2499 4.75016C15.4027 4.90294 15.4791 5.09738 15.4791 5.3335C15.4791 5.56961 15.4027 5.76405 15.2499 5.91683L11.1666 10.0002L15.2499 14.0835C15.4027 14.2363 15.4791 14.4307 15.4791 14.6668C15.4791 14.9029 15.4027 15.0974 15.2499 15.2502C15.0971 15.4029 14.9027 15.4793 14.6666 15.4793C14.4305 15.4793 14.236 15.4029 14.0833 15.2502L9.99992 11.1668Z" fill="#DDDDDD"/>
</g>
</g>
</g>
</g>
</g>
</g>
</g>
</g>
</g>
<defs>
<clipPath id="clip0_0_1">
<rect width="1050" height="1026" fill="white" transform="translate(-344 -430)"/>
</clipPath>
<clipPath id="clip1_0_1">
<rect width="20" height="20" fill="white"/>
</clipPath>
</defs>
</svg>
