<svg width="6" height="6" viewBox="0 0 6 6" fill="none" xmlns="http://www.w3.org/2000/svg">
<g clip-path="url(#clip0_281_377)">
<path d="M3.19978 2.41761L2.34757 3.26982C2.31529 3.30211 2.2763 3.3177 2.23062 3.3166C2.18493 3.31549 2.14595 3.29878 2.11366 3.26647C2.08134 3.23415 2.06519 3.1946 2.06519 3.14781C2.06519 3.10102 2.08134 3.06148 2.11366 3.0292L3.08283 2.05998C3.10064 2.04217 3.11902 2.02964 3.13797 2.02238C3.15692 2.01517 3.17752 2.01156 3.19978 2.01156C3.22207 2.01156 3.24269 2.01517 3.26164 2.02238C3.28056 2.02964 3.29894 2.04217 3.31679 2.05998L4.28931 3.03251C4.3216 3.06482 4.33719 3.10383 4.33608 3.14951C4.33498 3.19516 4.31827 3.23415 4.28595 3.26647C4.25364 3.29878 4.21408 3.31494 4.1673 3.31494C4.12051 3.31494 4.08097 3.29878 4.04869 3.26647L3.19978 2.41761Z" fill="#999999"/>
</g>
<defs>
<clipPath id="clip0_281_377">
<rect width="4.8125" height="4.8125" fill="white" transform="translate(0.796875 0.21875)"/>
</clipPath>
</defs>
</svg>
